<?xml version="1.0" encoding="UTF-8" standalone="no"?>
<svg
   version="1.1"
   id="Layer_1"
   x="0"
   y="0"
   viewBox="0 0 1053.2 183.5"
   xml:space="preserve"
   sodipodi:docname="vieri.svg"
   width="1053.2"
   height="183.5"
   inkscape:version="1.2.2 (732a01da63, 2022-12-09)"
   xmlns:inkscape="http://www.inkscape.org/namespaces/inkscape"
   xmlns:sodipodi="http://sodipodi.sourceforge.net/DTD/sodipodi-0.dtd"
   xmlns="http://www.w3.org/2000/svg"
   xmlns:svg="http://www.w3.org/2000/svg"><defs
   id="defs11" /><sodipodi:namedview
   id="namedview9"
   pagecolor="#ffffff"
   bordercolor="#000000"
   borderopacity="0.25"
   inkscape:showpageshadow="2"
   inkscape:pageopacity="0.0"
   inkscape:pagecheckerboard="0"
   inkscape:deskcolor="#d1d1d1"
   showgrid="false"
   inkscape:zoom="1.0393404"
   inkscape:cx="493.58229"
   inkscape:cy="97.177021"
   inkscape:window-width="5120"
   inkscape:window-height="1369"
   inkscape:window-x="-8"
   inkscape:window-y="-8"
   inkscape:window-maximized="1"
   inkscape:current-layer="Layer_1" />
    <style
   id="style2">
        .st0{fill:#07434b}
    </style>
    <path
   class="st0"
   d="m 304,76 c -42,42 -110,42 -152,0 L 171,95 152,76 76,0 0,76 76,152 c 42,42 110,42 152,0 z m 387.4,5.4 h 96.1 v 20.4 h -96.1 z m -19.8,53.5 c 0,10.6 8.4,18.7 18.1,18.7 h 104.7 v 20.6 H 689.7 c -20.9,0 -37.8,-17.5 -37.8,-39.4 V 48.5 c 0,-21.8 16.9,-39.4 37.8,-39.4 H 794.4 V 29.7 H 689.7 c -9.8,0 -18.1,8.4 -18.1,18.7 z m -171.5,16.6 c -2.8,7.4 -8.4,22.8 -24.8,22.8 h -10.7 c -16.5,0 -22.3,-15.4 -25.1,-22.8 L 384.9,9.2 h 21.8 l 51.5,134.9 c 3.5,8.9 4.9,9.6 6.3,9.6 h 10.7 c 1.6,0 3.2,-1.9 6.3,-9.6 L 533,9.2 h 21.6 z m 89,-142.3 h 19.7 V 174.3 H 589.1 Z M 972,46.1 c 0,-10.3 -6,-16.3 -15.8,-16.3 h -104 v 64.8 h 104 C 966,94.6 972,88.4 972,78 Z m -119.7,69.2 v 59 h -20 V 9.2 h 124 c 21.1,0 35.8,15.1 35.8,37 v 32.3 c 0,20.9 -13.9,35.8 -33.7,36.7 l 36.2,59 h -23.9 l -36.4,-59 h -82 z M 1033.5,9.2 h 19.7 v 165.1 h -19.7 z"
   id="path4" />
    <path
   d="m 228,0 76,76 c -42,42 -110,42 -152,0 z"
   style="fill:#8cd8c1"
   id="path6" />
</svg>
